<?xml version="1.0" standalone="no"?><!DOCTYPE svg PUBLIC "-//W3C//DTD SVG 1.1//EN" "http://www.w3.org/Graphics/SVG/1.1/DTD/svg11.dtd"><svg class="icon" width="200px" height="200.00px" viewBox="0 0 1024 1024" version="1.1" xmlns="http://www.w3.org/2000/svg"><path fill="#1890ff" d="M205.969637 6.836695h612.060726c73.354535 0 133.350857 59.996323 133.350858 133.350857v743.654571C951.381221 957.168006 891.383875 1017.164328 818.030363 1017.164328H205.969637c-73.355558 0-133.350857-59.996323-133.350858-133.321181v-743.655595c0-73.354535 59.996323-133.350857 133.350858-133.350857z m306.036503 129.111308c-139.927633 0-253.2995 113.371867-253.299501 253.256522 0 139.885678 113.371867 253.257545 253.299501 253.257545 139.857025 0 253.288244-113.371867 253.288244-253.257545 0-139.884654-113.431219-253.256522-253.288244-253.256522zM295.529216 753.452708c-18.062342 0-32.873646 14.780605-32.873646 32.872623 0 18.12067 14.810281 32.902298 32.873646 32.902298h432.884263c18.119647 0 32.873646-14.781628 32.873646-32.902298 0-18.092017-14.753999-32.872623-32.873646-32.872623H295.529216z m28.459112-397.150482h86.538786c3.078099-52.097438 13.416541-100.884487 29.4466-143.86326-59.880689 24.422177-104.602151 78.436263-115.985386 143.86326z m147.231978 0h95.090539c-3.426022-57.441132-15.681113-110.875005-34.614287-156.903225a192.016885 192.016885 0 0 0-25.497669-0.92916c-19.180813 46.261534-31.551537 100.014678-34.978583 157.832385z m155.785778 0h73.006611c-10.339465-59.386433-48.091202-109.30628-99.724059-136.313322 14.461334 41.121477 23.813311 87.236679 26.717448 136.313322z m73.006611 65.805621h-73.006611c-2.904137 49.076644-12.256114 95.191846-26.717448 136.313323 51.632858-27.008067 89.384594-76.956566 99.724059-136.313323z m-133.700827 0H471.221329c3.427046 57.817708 15.79777 111.570852 34.978583 157.80271 1.916649 0.058328 3.833297 0.115633 5.807251 0.115633 6.621801 0 13.242579-0.348947 19.690419-1.016141 18.93215-46.028221 31.188264-99.462094 34.614286-156.902202z m-155.784754 0H323.988328c11.384259 65.426998 56.047392 119.411408 115.985386 143.863261-16.03006-42.978774-26.368501-91.765823-29.4466-143.863261z"  /></svg>