<?xml version="1.0" standalone="no"?><!DOCTYPE svg PUBLIC "-//W3C//DTD SVG 1.1//EN" "http://www.w3.org/Graphics/SVG/1.1/DTD/svg11.dtd"><svg class="icon" width="200px" height="200.00px" viewBox="0 0 1024 1024" version="1.1" xmlns="http://www.w3.org/2000/svg"><path fill="#1890ff" d="M466.318679 81.831587l-183.304473 71.176943a119.46769 119.46769 0 0 0-7.218387 3.536539c-7.567334 3.87116-13.737858 8.222249-18.627206 13.34491-10.769253 11.031219-14.610737 24.753727-14.086805 44.239485V430.381261l-191.163448 71.672223c-11.176528 3.405556-21.305192 9.298765-29.163146 17.07076-10.88591 10.258624-17.347052 23.821497-16.764791 41.022216v134.145965l-0.058329 89.993461c0 34.431115 6.636127 41.940121 37.196083 58.355966l193.957069 102.275156c28.406923 10.62292 40.689643 15.687253 71.656873 0l9.663061-4.977351 175.271536-90.45804v-0.028653l0.058328-0.028653 0.058329-0.029675 0.058328-0.058329 0.058328-0.028652 0.058329-0.058329 0.116656-0.058328 0.058329-0.059352 0.116656-0.058328 0.115634-0.086981 0.116656-0.059351 0.115634-0.086981 0.174985-0.086981 0.116656-0.088004 0.173962-0.086981 0.174985-0.116657 0.174985-0.086981 0.173962-0.115633 0.173961-0.088004 0.233314-0.115633 0.174985-0.116657 0.233313-0.115634 0.233313-0.116656 0.233314-0.115634 0.233313-0.116656 0.233314-0.145309 0.290618-0.116657 0.233313-0.115633 0.291642-0.146333 0.291642-0.115633 0.290618-0.146333 0.290618-0.116657 0.34997-0.115633 0.290619-0.146332 0.348946-0.14531 0.291642-0.116656 0.348947-0.115634 0.34997-0.146332 0.348947-0.116657 0.407275-0.115633 0.348946-0.115634 0.348947-0.116656 0.407275-0.116657 0.407275-0.145309 0.407275-0.086981 0.407275-0.116657 0.407275-0.116656 0.407275-0.115634 0.465604-0.08698 0.407275-0.116657 0.465603-0.086981 0.465604-0.088004 0.465603-0.086981 0.465603-0.086981 0.465604-0.059352 0.465603-0.08698 0.465604-0.058329 0.523931-0.059351 0.465604-0.058329h0.058328l0.465603-0.058328 0.523932-0.028653 0.523932-0.058328 0.523932 0.058328 0.524955 0.028653 0.465603 0.058328 0.523932 0.058329 0.465603 0.059351 0.523932 0.058329 0.465603 0.08698 0.465604 0.059352 0.465603 0.086981 0.465603 0.086981 0.465604 0.088004 0.407275 0.086981h0.058328l0.407275 0.116657 0.407275 0.08698 0.465604 0.115634 0.406251 0.116656 0.407276 0.116657 0.34997 0.086981 0.407275 0.145309 0.406251 0.116657 0.407275 0.116656 0.348947 0.115634 0.34997 0.115633 0.407275 0.116657 0.290619 0.146332 0.348946 0.115634 0.34997 0.116656 0.34997 0.14531 0.290619 0.146332 0.290618 0.115633 0.34997 0.116657 0.290618 0.146333 0.290619 0.115633 0.233313 0.146333 0.290619 0.115633 0.233313 0.116657 0.290618 0.145309 0.234337 0.116656 0.23229 0.115634 0.234337 0.116656 0.23229 0.115634 0.174985 0.116657 0.233313 0.115633 0.174985 0.088004 0.174985 0.115633 0.173962 0.086981 0.174985 0.116657 0.174985 0.086981 0.115633 0.088004 0.174985 0.086981 0.116657 0.086981 0.115633 0.059351 0.116657 0.086981 0.115633 0.058328 0.059352 0.059352 0.058328 0.058328 0.115634 0.058329 0.058328 0.028652 0.059352 0.058329v0.029675h0.058328l0.058328 0.028653v0.028653l175.271536 90.45804 9.663061 4.977351c30.908902 15.687253 43.24995 10.62292 71.65585 0l190.464532-100.412743c25.902898-13.767534 39.234505-20.228676 40.514658-51.66151 2.095727-30.444322 0.116657-67.379462 0.116657-98.551353V560.14646c0.581237-17.201743-5.879906-30.763593-16.822097-41.02324-7.858976-7.771995-17.929312-13.665204-29.164169-17.07076l-191.104097-71.672223-0.059352-216.251796c0.58226-19.485758-3.260247-33.20929-14.028476-44.239485-4.889347-5.122661-11.1182-9.47375-18.627206-13.34491-4.482072-2.372019-8.499564-4.060471-13.155598-5.864556l-177.366239-68.847903c-13.32956-5.195315-30.794292-12.776976-45.288372-12.704322-14.495103-0.073678-31.958812 7.509006-45.288372 12.704322z m-193.609145 400.793444l201.816045 82.790422-201.816045 82.775073-201.756694-82.775073 201.756694-82.790422z m478.314873 0l201.757717 82.790422-201.757717 82.775073-201.815021-82.775073 201.815021-82.790422zM546.35846 356.540656l165.666803-70.4637v144.347284l-165.666803 67.626078V356.540656zM308.509829 710.649942l165.666803-76.110293v152.801823l-165.666803 84.550505v-161.242035z m475.753544 0l165.667826-76.110293v152.801823l-165.667826 84.550505v-161.242035zM509.860271 128.414438l201.756693 82.789399-201.756693 82.760747-201.757717-82.760747 201.757717-82.789399z"  /></svg>