<?xml version="1.0" standalone="no"?><!DOCTYPE svg PUBLIC "-//W3C//DTD SVG 1.1//EN" "http://www.w3.org/Graphics/SVG/1.1/DTD/svg11.dtd"><svg class="icon" width="200px" height="200.00px" viewBox="0 0 1024 1024" version="1.1" xmlns="http://www.w3.org/2000/svg"><path fill="#1890ff" d="M136.863861 156.006811l333.279929-138.501147c28.480601-8.886373 56.448527-8.886373 84.929128 0l333.27993 138.501147c75.132014 34.347204 90.910341 78.122109 88.575161 153.282776 0.45537 18.568877 0.228197 35.600751-0.45537 45.967846-20.563297 306.535876-207.908798 562.177719-462.867075 657.900659l-0.968046-0.399088-1.024327 0.399088C256.653891 917.435152 69.251085 661.793309 48.745093 355.257433c-5.753016-89.316033-4.157685-157.071048 88.118768-199.250622z m373.893848-16.035176v740.637871l0.968045 0.399088 0.740873-0.313131 0.740872 0.313131c184.782124-76.355886 321.603006-345.013135 335.217044-484.397394 6.835672-115.574018 14.695671-118.76468-59.296382-146.703953L533.086205 144.101691c-10.196203-2.620682-17.088156-3.873206-22.328496-4.130056z"  /></svg>