<?xml version="1.0" standalone="no"?><!DOCTYPE svg PUBLIC "-//W3C//DTD SVG 1.1//EN" "http://www.w3.org/Graphics/SVG/1.1/DTD/svg11.dtd"><svg class="icon" width="200px" height="200.00px" viewBox="0 0 1024 1024" version="1.1" xmlns="http://www.w3.org/2000/svg"><path fill="#1890ff" d="M16.879402 292.266922h990.210497c4.894464 0 8.890466-4.027725 8.890466-8.922188v-48.078923L511.98465 45.984219 8.018611 235.265811v48.078923c0 4.894464 3.965304 8.922189 8.860791 8.922188z"  /><path fill="#1890ff" d="M99.593077 264.013495h824.783147c13.072711 0 23.7294 10.656689 23.7294 23.7294v37.298413c0 13.011312-10.656689 23.7294-23.7294 23.7294h-824.783147c-13.072711 0-23.7294-10.719111-23.7294-23.7294V287.742895c-0.001023-13.071687 10.655666-23.7294 23.7294-23.7294zM101.358276 777.397002h821.282424c14.435752 0 26.270264 11.833489 26.270265 26.270264v42.750578H75.057313v-42.750578c0-14.436775 11.834513-26.270264 26.300963-26.270264z"  /><path fill="#1890ff" d="M444.512068 377.396618H579.45621v428.252788H444.512068zM711.240389 377.396618h134.882743v428.252788H711.240389zM177.845145 377.396618h134.882744v428.252788H177.845145zM50.770212 882.477036h922.428877c22.45948 0 40.799137 18.401055 40.799136 40.829835v54.70891H10.001775V923.306871c0-22.427757 18.339657-40.829836 40.768437-40.829835z"  /></svg>