<?xml version="1.0" standalone="no"?><!DOCTYPE svg PUBLIC "-//W3C//DTD SVG 1.1//EN" "http://www.w3.org/Graphics/SVG/1.1/DTD/svg11.dtd"><svg class="icon" width="200px" height="200.00px" viewBox="0 0 1024 1024" version="1.1" xmlns="http://www.w3.org/2000/svg"><path fill="#1890ff" d="M740.06789 316.44146c54.71812-23.01411-13.635528-79.428868-30.783036-98.56568L538.810569 26.626374c-12.172203-19.605484-41.50624-19.605484-53.679466 0L314.715146 217.87578c-17.146484 19.136811-85.500132 75.551569-30.783036 98.56568h456.13578z"  /><path fill="#1890ff" d="M796.014998 574.040884c68.119311-28.676052-16.971499-98.946348-38.33195-122.764776L545.42316 213.10616c-15.158204-24.403757-51.690163-24.403757-66.84632 0L266.316952 451.276108c-21.360451 23.818427-106.509589 94.088724-38.390278 122.764776h568.088324z"  /><path fill="#1890ff" d="M850.616461 832.474301c81.169509-34.176312-20.307471-117.921477-45.70588-146.33454L551.860767 402.21993c-18.083831-29.085374-61.638726-29.085374-79.721534 0L219.090442 686.139761c-25.398409 28.413063-126.875389 112.158228-45.70588 146.33454h677.231899z"  /><path fill="#1890ff" d="M418.182452 832.474301h187.636119c7.548915 72.215597 40.55559 117.161162 93.05007 141.388912-0.116657 21.067786-17.322493 38.215294-38.390278 38.215294H363.522661c-21.067786 0-38.273622-17.147508-38.390279-38.215294 52.493456-24.227749 85.500132-69.173314 93.05007-141.388912z"  /></svg>