<?xml version="1.0" standalone="no"?><!DOCTYPE svg PUBLIC "-//W3C//DTD SVG 1.1//EN" "http://www.w3.org/Graphics/SVG/1.1/DTD/svg11.dtd"><svg class="icon" width="200px" height="200.00px" viewBox="0 0 1024 1024" version="1.1" xmlns="http://www.w3.org/2000/svg"><path fill="#1890ff" d="M143.913403 615.549171l81.071271-80.725395 105.272415 105.725738c8.851581 8.89456 23.361011 8.917072 32.234081 0.064468l16.47315-16.387192c8.87307-8.841348 8.916049-23.339521 0.064468-32.234081L273.756374 486.256737l85.755958-85.388591L464.784746 506.605141c8.851581 8.884327 23.361011 8.916049 32.234081 0.075724l16.47315-16.387193c8.884327-8.851581 8.917072-23.359987 0.064469-32.234081l-105.273438-105.748251 116.337402-115.81961c5.170756-5.149266 13.613015-5.127777 18.762282 0.042978l244.506248 245.575601c5.149266 5.170756 5.127777 13.613015-0.042979 18.761258L407.139977 879.930032l-223.349435 1.262757-42.122268-42.295207 2.245129-223.348411z"  /><path fill="#1890ff" d="M42.160131 1004.515266L17.720558 979.977455c-4.857625-4.889347-4.836135-12.85577 0.042979-17.724651l153.786241-153.128257c4.901627-4.857625 12.86805-4.836135 17.725675 0.042979l24.439573 24.53781c4.857625 4.890371 4.857625 12.856793-0.042979 17.725675L59.884782 1004.546988c-4.879114 4.868881-12.867026 4.848415-17.724651-0.031722zM869.22013 479.801735l-323.169684-324.584914c-7.643059-7.686037-7.621569-20.219467 0.054235-27.862526l57.26717-57.019531c7.687061-7.653292 20.219467-7.621569 27.862526 0.054235L954.415318 394.973914c7.643059 7.686037 7.610313 20.218443-0.064469 27.872758l-57.268193 57.019531c-7.674781 7.643059-20.219467 7.610313-27.862526-0.064468z"  /><path fill="#1890ff" d="M761.033345 294.742295l-30.409529-30.539489c-3.217268-3.238758-3.207035-8.506727 0.031722-11.734229l159.788944-159.096166c3.238758-3.217268 8.51696-3.206012 11.734228 0.032745l30.40953 30.528233c3.217268 3.238758 3.207035 8.528217-0.031722 11.745485L772.766551 294.775041c-3.227501 3.217268-8.51696 3.206012-11.733206-0.032746z"  /><path fill="#1890ff" d="M806.134453 48.62639L836.673942 18.223c3.227501-3.222385 8.51696-3.212152 11.734228 0.026606l159.098214 159.78792c3.217268 3.238758 3.206012 8.51696-0.02149 11.734229l-30.539489 30.40953c-3.238758 3.217268-8.51696 3.206012-11.734229-0.02149L806.112963 60.360619c-3.227501-3.227501-3.216245-8.51696 0.02149-11.734229z"  /></svg>