<?xml version="1.0" standalone="no"?><!DOCTYPE svg PUBLIC "-//W3C//DTD SVG 1.1//EN" "http://www.w3.org/Graphics/SVG/1.1/DTD/svg11.dtd"><svg class="icon" width="200px" height="200.00px" viewBox="0 0 1024 1024" version="1.1" xmlns="http://www.w3.org/2000/svg"><path fill="#1890ff" d="M80.201463 269.641668h863.624703c41.067242 0 74.717576 33.650334 74.717576 74.746228v164.877835H5.456258V344.387896c0-41.095895 33.650334-74.746229 74.745205-74.746228z m938.342279 298.694296v310.066274c0 41.124547-33.650334 74.746229-74.717576 74.746229H80.201463c-41.095895 0-74.746229-33.620658-74.746229-74.746229V568.335964h375.883152v72.099964h261.349834v-72.099964h375.855522z"  /><path fill="#1890ff" d="M348.358316 70.851533h327.313043c44.498381 0 80.911636 36.413255 80.911637 80.911636v173.224927c0 44.498381-36.413255 80.912659-80.911637 80.912659h-32.981092V191.4643H381.339409v214.437479h-32.981093c-44.528057 0-80.941312-36.413255-80.941312-80.91266v-173.224927c0-44.499404 36.413255-80.912659 80.941312-80.912659z"  /></svg>