<?xml version="1.0" standalone="no"?><!DOCTYPE svg PUBLIC "-//W3C//DTD SVG 1.1//EN" "http://www.w3.org/Graphics/SVG/1.1/DTD/svg11.dtd"><svg class="icon" width="200px" height="200.00px" viewBox="0 0 1024 1024" version="1.1" xmlns="http://www.w3.org/2000/svg"><path fill="#1890ff" d="M318.492161 13.650877h387.037167c29.69731 0 53.988504 24.301427 53.988504 53.987481V79.275373c0 29.687077-24.290171 53.987481-53.988504 53.98748H318.492161c-29.69731 0-53.987481-24.301427-53.98748-53.98748V67.639381c-0.001023-29.687077 24.289147-53.988504 53.98748-53.988504z"  /><path fill="#1890ff" d="M327.620034 110.001103h116.281121v352.165008H327.620034zM215.490458 732.937506h593.038526c76.288348 0 138.689435 62.412344 138.689435 138.700692s-62.401087 138.711948-138.689435 138.711948H215.490458c-76.288348 0-138.711948-62.4236-138.711947-138.711948 0.001023-76.288348 62.424623-138.700692 138.711947-138.700692z"  /><path fill="#1890ff" d="M327.620034 432.673462L87.486365 818.363961l157.896854-6.943119L443.901155 462.165088z"  /><path fill="#1890ff" d="M237.488428 641.151217h518.286157v204.325187H237.488428zM579.275085 110.001103h116.282144v352.165008H579.275085z"  /><path fill="#1890ff" d="M695.557229 432.673462l240.155159 385.690499-157.918344-6.943119L579.275085 462.165088z"  /></svg>