<?xml version="1.0" standalone="no"?><!DOCTYPE svg PUBLIC "-//W3C//DTD SVG 1.1//EN" "http://www.w3.org/Graphics/SVG/1.1/DTD/svg11.dtd"><svg class="icon" width="200px" height="200.00px" viewBox="0 0 1024 1024" version="1.1" xmlns="http://www.w3.org/2000/svg"><path fill="#1890ff" d="M89.07658 59.157213h845.845817c45.773418 0 83.22021 37.445769 83.22021 83.22021v569.133118c0 45.773418-37.446792 83.22021-83.22021 83.22021H89.07658c-45.767278 0-83.22021-37.446792-83.22021-83.22021V142.3764c0-45.773418 37.452932-83.219187 83.22021-83.219187z m27.072535 111.760163v512.050142h791.706887V170.917376H116.149115zM753.75049 883.110461H270.254627c-22.476876 0-40.869745 18.386729-40.869745 40.863605v0.006139c0 22.470736 18.392869 40.863605 40.869745 40.863605h483.495863c22.476876 0 40.863605-18.392869 40.863604-40.863605v-0.006139c0-22.477899-18.386729-40.863605-40.863604-40.863605z"  /><path fill="#1890ff" d="M398.940241 896.033769h226.119518l-29.419994-113.241907H428.366375z"  /></svg>