<?xml version="1.0" standalone="no"?><!DOCTYPE svg PUBLIC "-//W3C//DTD SVG 1.1//EN" "http://www.w3.org/Graphics/SVG/1.1/DTD/svg11.dtd"><svg class="icon" width="200px" height="200.00px" viewBox="0 0 1024 1024" version="1.1" xmlns="http://www.w3.org/2000/svg"><path fill="#1890ff" d="M154.109605 159.54949h605.257801v405.942711c0 81.736419-66.87088 148.607299-148.58274 148.607299H302.716905c-81.736419 0-148.607299-66.87088-148.6073-148.607299V159.54949z"  /><path fill="#1890ff" d="M463.94666 159.54949h355.235944c109.626574 0 199.314066 89.711029 199.314066 199.337603s-89.688516 199.291554-199.314066 199.291554H463.94666c-71.518727 0-134.520494-38.131383-169.701691-95.091562h529.467802c57.314242 0 104.198969-46.909286 104.198969-104.199992 0-57.337778-46.884726-104.198969-104.198969-104.198969h-529.467802c35.18222-56.961202 98.182964-95.138634 169.701691-95.138634zM967.78888 759.35615v30.815781c0 40.868721-33.457953 74.279602-74.326674 74.279602H79.830004c-40.868721 0-74.327697-33.410881-74.327698-74.279602v-30.815781h962.286574z"  /></svg>