<?xml version="1.0" standalone="no"?><!DOCTYPE svg PUBLIC "-//W3C//DTD SVG 1.1//EN" "http://www.w3.org/Graphics/SVG/1.1/DTD/svg11.dtd"><svg class="icon" width="200px" height="200.00px" viewBox="0 0 1024 1024" version="1.1" xmlns="http://www.w3.org/2000/svg"><path fill="#1890ff" d="M166.210177 136.960051h691.590902c49.614902 0 90.203238 40.599592 90.203238 90.214494v95.217428H75.995683v-95.217428c0-49.614902 40.598569-90.214494 90.214494-90.214494z m179.580669 487.800904l109.410657 100.230595 214.665675-218.84178 91.87941 91.889643-306.545085 306.533829-192.936835-192.948091 83.526178-86.864196z m602.214494-237.223393H75.995683v534.566927c0 49.626158 40.599592 90.214494 90.214494 90.214494h691.590902c49.614902 0 90.203238-40.588336 90.203238-90.214494V387.537562z"  /><path fill="#1890ff" d="M285.669681 11.68204h80.176903c11.941959 0 21.719631 9.766415 21.719631 21.719631v150.33566c0 11.941959-9.777671 21.719631-21.719631 21.71963h-80.176903c-11.952193 0-21.729864-9.777671-21.729864-21.71963V33.400648c0-11.952193 9.776648-21.718607 21.729864-21.718608zM661.536459 11.68204h80.176904c11.941959 0 21.719631 9.766415 21.719631 21.719631v150.33566c0 11.941959-9.777671 21.719631-21.719631 21.71963h-80.176904c-11.953216 0-21.729864-9.777671-21.729863-21.71963V33.400648c0-11.952193 9.777671-21.718607 21.729863-21.718608z"  /></svg>