<?xml version="1.0" standalone="no"?><!DOCTYPE svg PUBLIC "-//W3C//DTD SVG 1.1//EN" "http://www.w3.org/Graphics/SVG/1.1/DTD/svg11.dtd"><svg class="icon" width="200px" height="200.00px" viewBox="0 0 1024 1024" version="1.1" xmlns="http://www.w3.org/2000/svg"><path fill="#1890ff" d="M904.065683 98.239245s41.905328-83.82089 65.859856 0c0 0 149.689955 308.365543-104.783276 646.669897C744.113011 902.76711 495.837934 957.730823 324.824367 849.10811c-56.981668-36.194268-81.647392-78.003406-81.647391-78.003405s-36.068401 23.476644-77.232858 70.781948c-39.352185 45.227997-60.44146 123.143398-109.149714 121.087581-11.362769-0.477883-23.359987-4.054331-32.305712-14.384587-19.792749-22.863685-16.3524-49.789887-4.735852-74.436167 17.823912-37.801879 63.277036-118.436199 154.319383-193.915114C326.95898 553.518519 493.703322 517.363137 685.514522 513.06526c30.814758-0.692777 30.113795-51.719839-10.476588-52.898685 0 0-267.951169-24.373058-488.74439 142.537059-55.100835-193.253036 137.245553-350.495999 320.2942-368.641228 97.883135-9.707063 176.490291 13.614038 266.519567-23.613767 41.48475-17.151601 99.617636-45.375353 130.958372-112.209394z"  /></svg>