<?xml version="1.0" standalone="no"?><!DOCTYPE svg PUBLIC "-//W3C//DTD SVG 1.1//EN" "http://www.w3.org/Graphics/SVG/1.1/DTD/svg11.dtd"><svg class="icon" width="200px" height="200.00px" viewBox="0 0 1024 1024" version="1.1" xmlns="http://www.w3.org/2000/svg"><path fill="#1890ff" d="M24.20319 198.388999H250.811848c9.404165 0 17.109645 7.704457 17.109645 17.109646v117.184698c0 9.404165-7.704457 17.109645-17.109645 17.109646H24.20319c-9.403142 0-17.108622-7.704457-17.108622-17.109646V215.497622c0-9.404165 7.704457-17.108622 17.108622-17.108623z"  /><path fill="#1890ff" d="M263.162106 198.388999l140.781069 152.507112-111.208603 102.682432-171.145573-185.422713 75.573059-69.766831zM24.20319 673.275804H250.811848c9.404165 0 17.109645 7.703434 17.109645 17.136252v117.157069c0 9.403142-7.704457 17.108622-17.109645 17.108622H24.20319c-9.403142 0-17.108622-7.704457-17.108622-17.108622V690.412056c0-9.432818 7.704457-17.136251 17.108622-17.136252z"  /><path fill="#1890ff" d="M52.699141 824.677747l578.064516-626.288748H836.806971L258.743478 824.677747z"  /><path fill="#1890ff" d="M630.763657 199.521797h214.938897c9.404165 0 17.108622 7.704457 17.108622 17.108622v117.15707c0 9.403142-7.703434 17.108622-17.108622 17.108622H619.093896c-9.404165 0-17.109645-7.704457-17.109645-17.108622V230.680385l28.779406-31.158588zM606.687357 673.133565h226.608658c9.403142 0 17.108622 7.704457 17.108622 17.108622v117.15707c0 9.403142-7.704457 17.108622-17.108622 17.108622H634.842547l-45.264836-49.060271v-85.205421c0-9.404165 7.704457-17.108622 17.109646-17.108622z"  /><path fill="#1890ff" d="M599.548787 563.086413l171.145573 185.39406-82.314586 76.027406h-53.537227l-56.482296-61.240661-90.00574-97.498373zM997.642755 241.415869c12.124108 9.602686 19.261654 21.244818 19.261654 33.792573s-7.13857 24.161234-19.261654 33.763921c0 0.227174-138.854187 146.785818-152.054811 159.701962-8.553799 8.328673-19.035504 13.399145-31.554607 14.956614-32.292409-2.493792-51.836495-18.610833-53.763377-53.763377V120.548299c2.888788-34.84146 20.225607-54.01818 53.763377-53.791006 12.066803 0.368389 21.754423 4.192477 29.516185 10.849071 14.616877 12.605061 154.093233 162.336971 154.093233 163.809505z"  /><path fill="#1890ff" d="M997.642755 715.05629c12.124108 9.574034 19.261654 21.216165 19.261654 33.764944s-7.13857 24.161234-19.261654 33.76392c0 0.227174-138.854187 146.785818-152.054811 159.701963-8.553799 8.328673-19.035504 13.399145-31.554607 14.956613-32.292409-2.493792-51.836495-18.610833-53.763377-53.763377V594.160067c2.888788-34.84146 20.225607-54.01818 53.763377-53.791006 12.066803 0.368389 21.754423 4.192477 29.516185 10.877723 14.616877 12.576408 154.093233 162.308318 154.093233 163.809506z"  /></svg>