<?xml version="1.0" standalone="no"?><!DOCTYPE svg PUBLIC "-//W3C//DTD SVG 1.1//EN" "http://www.w3.org/Graphics/SVG/1.1/DTD/svg11.dtd"><svg class="icon" width="200px" height="200.00px" viewBox="0 0 1024 1024" version="1.1" xmlns="http://www.w3.org/2000/svg"><path fill="#1890ff" d="M342.49683 318.808362h339.005317v410.386921H342.49683z"  /><path fill="#1890ff" d="M415.498325 603.63177h0.058328c40.180038 0 73.059823 32.879786 73.059824 73.059824V940.958868c0 40.180038-32.879786 73.059823-73.059824 73.059823h-0.058328c-40.121709 0-73.001495-32.880809-73.001495-73.059823V676.692617c0-40.181061 32.879786-73.060847 73.001495-73.060847zM608.4413 603.63177c40.181061 0 73.059823 32.879786 73.059823 73.059824V940.958868c0 40.180038-32.879786 73.059823-73.059823 73.059823s-73.059823-32.880809-73.059823-73.059823V676.692617c0-40.181061 32.880809-73.060847 73.059823-73.060847zM511.963161 281.25617c74.695063 0 135.665571-60.971531 135.665571-135.666595 0-74.696087-60.970508-135.608266-135.665571-135.608266-74.680737 0-135.59394 60.91218-135.59394 135.608266 0 74.695063 60.913203 135.666595 135.59394 135.666595zM873.350186 157.269569c24.704609 24.761914 24.586929 65.234616-0.174985 89.879873l-270.1656 269.231323c-24.761914 24.703586-65.233593 24.585906-89.879873-0.176008-24.688236-24.761914-24.629908-65.175265 0.116656-89.879874l270.222905-269.230299c24.763961-24.645257 65.23564-24.586929 89.880897 0.174985z"  /><path fill="#1890ff" d="M150.647768 157.269569c-24.703586 24.761914-24.586929 65.234616 0.174985 89.879873l270.165599 269.231323c24.761914 24.703586 65.234616 24.585906 89.864524-0.176008 24.704609-24.761914 24.645257-65.175265-0.116657-89.879874L240.527641 157.094584c-24.761914-24.645257-65.234616-24.586929-89.879873 0.174985z"  /></svg>