<?xml version="1.0" standalone="no"?><!DOCTYPE svg PUBLIC "-//W3C//DTD SVG 1.1//EN" "http://www.w3.org/Graphics/SVG/1.1/DTD/svg11.dtd"><svg class="icon" width="200px" height="200.00px" viewBox="0 0 1024 1024" version="1.1" xmlns="http://www.w3.org/2000/svg"><path fill="#1890ff" d="M561.385682 54.662861c14.479754 46.322932 68.319878 191.034513 151.064252 301.396842 28.360875 37.829508 52.398289 58.762218 77.466171 100.938722 22.585346 37.962537 50.845937 95.39446 60.481369 157.616469 10.598361 68.442675-8.415653 170.567406-37.77425 231.071287-110.086037 226.890067-491.167574 226.890067-601.242355 0-29.358596-60.503881-48.38489-162.628613-37.77425-231.071287 9.635432-62.222009 37.896023-119.653931 60.470113-157.616469 25.068905-42.176504 49.117576-63.109214 77.47845-100.938722C394.299556 245.697374 448.139681 100.986817 462.609202 54.662861c19.39059-62.016325 79.396123-62.027581 98.77648 0zM268.148667 685.8297c2.538818 11.264532 4.934373 22.939409 8.237598 33.916393a222.949322 222.949322 0 0 0 36.976073 74.162945 252.389783 252.389783 0 0 0 53.141208 52.487316 237.320606 237.320606 0 0 0 71.63436 37.109102 247.462573 247.462573 0 0 0 100.66243 7.927538 29.514138 29.514138 0 0 0 22.251749-12.706368 29.491626 29.491626 0 0 0 3.913115-25.322685c-4.490259-12.595851-16.752512-20.710653-30.090259-19.934988l-14.357981 1.707895a171.35228 171.35228 0 0 1-52.13223-3.936651 194.878043 194.878043 0 0 1-95.550002-56.999065 175.854819 175.854819 0 0 1-47.520198-94.042675 155.326314 155.326314 0 0 0-3.924371-19.468361c-2.305504-8.936515-9.446121-15.810049-18.471664-17.740001a32.26785 32.26785 0 0 0-19.668929 2.350529c-10.378351 3.315505-17.340912 13.071687-17.074853 23.9709l1.973954 16.518176z"  /></svg>