<?xml version="1.0" standalone="no"?><!DOCTYPE svg PUBLIC "-//W3C//DTD SVG 1.1//EN" "http://www.w3.org/Graphics/SVG/1.1/DTD/svg11.dtd"><svg class="icon" width="200px" height="200.00px" viewBox="0 0 1024 1024" version="1.1" xmlns="http://www.w3.org/2000/svg"><path fill="#1890ff" d="M512.00614 353.504513c67.831762 0 123.209913-55.332102 123.209913-123.163865 0-67.844042-55.378151-123.176144-123.209913-123.176144-67.845065 0-123.176144 55.332102-123.176144 123.176144 0 67.831762 55.331079 123.163865 123.176144 123.163865z"  /><path fill="#1890ff" d="M170.285998 157.261382h683.475076c11.274765 0 20.519295 9.233273 20.519295 20.530551v47.925427c0 11.297278-9.24453 20.542831-20.519295 20.542831h-683.475076c-11.320814 0-20.566367-9.245553-20.566367-20.542831v-47.925427c0-11.297278 9.24453-20.530551 20.566367-20.530551zM459.822745 341.228956h104.401582v517.63329H459.822745z"  /><path fill="#1890ff" d="M158.776896 813.576944H865.224128v103.257529H158.776896z"  /><path fill="#1890ff" d="M403.310773 618.052173c0 76.276068-89.2004 138.117408-199.250622 138.117408S4.80953 694.328241 4.80953 618.052173l127.362481-263.910142c11.746508-28.137794 39.576288-48.055386 71.841068-48.055386 31.416461 0 59.766079 19.116345 71.842091 48.055386l127.455603 263.910142zM91.227565 607.297246h225.713267l-112.880681-221.009138L91.227565 607.297246zM1019.19047 618.052173c0 76.276068-89.2004 138.117408-199.251644 138.117408-110.00315 0-199.250622-61.84134-199.250622-138.117408l127.409554-263.910142c11.698413-28.137794 39.529216-48.055386 71.793996-48.055386 31.416461 0 59.766079 19.104065 71.842091 48.055386l127.456625 263.910142z m-312.085254-10.754927h225.714291l-112.880681-221.008115-112.83361 221.008115z"  /></svg>