<?xml version="1.0" standalone="no"?><!DOCTYPE svg PUBLIC "-//W3C//DTD SVG 1.1//EN" "http://www.w3.org/Graphics/SVG/1.1/DTD/svg11.dtd"><svg class="icon" width="200px" height="200.00px" viewBox="0 0 1024 1024" version="1.1" xmlns="http://www.w3.org/2000/svg"><path fill="#1890ff" d="M889.750682 144.684974l1.435695 1.478675c117.277819 120.578998 145.784003 295.896582 86.758796 443.189959C871.875605 520.30923 728.471807 531.165463 633.91134 623.120598a278.766471 278.766471 0 0 0-29.79043 34.088308L198.469841 240.091714l106.47582-103.550194C468.004061-22.044018 731.172307-18.378543 889.750682 144.684974zM559.45573 749.979614L133.121637 311.600208C79.883215 394.790742 88.628373 507.278475 160.27706 580.97377l274.484966 282.223192c37.592101 38.663501 86.330032 60.288987 136.4177 64.789479-23.511436-56.646025-27.370316-119.421641-11.723996-178.006827z"  /><path fill="#1890ff" d="M291.979374 644.049215l83.394172 85.750841c12.108758 12.463845 11.015869 31.827829-0.621146 44.697925L177.894264 991.962394c-11.659528 12.891586-32.576888 11.841676-44.686669-0.621146L23.794891 878.842259c-12.130247-12.452588-12.601991-33.392461 0.621146-44.697925l222.855179-190.716265c13.223136-11.295231 32.576888-11.831443 44.708158 0.621146zM957.776872 694.566671c70.211968 72.183875 68.60538 187.640213-3.601008 257.85218-72.184898 70.212991-187.641236 68.60538-257.853203-3.589751s-68.60538-187.651469 3.579518-257.86446c72.206388-70.211968 187.662725-68.604357 257.874693 3.602031z"  /></svg>