<?xml version="1.0" standalone="no"?><!DOCTYPE svg PUBLIC "-//W3C//DTD SVG 1.1//EN" "http://www.w3.org/Graphics/SVG/1.1/DTD/svg11.dtd"><svg class="icon" width="200px" height="200.00px" viewBox="0 0 1024 1024" version="1.1" xmlns="http://www.w3.org/2000/svg"><path fill="#1890ff" d="M512.168845 523.475333c-3.717664 0-7.278762-1.570772-9.845209-4.254899L301.231067 304.550666l-0.418532-0.405229c-24.455946-26.617164-37.967654-61.728776-37.967654-98.910533 0-37.679082 13.772651-73.119175 38.804717-99.866299 25.241844-26.956901 58.861478-41.776392 94.734429-41.776392 29.901971 0 58.128792 10.238158 81.746652 29.574514 13.720462 11.259416 25.241844 25.411712 33.881601 41.24018 8.64078-15.828469 20.21435-29.980765 33.8816-41.24018 23.565671-19.40287 51.844682-29.574513 81.747676-29.574514 35.819739 0 69.492585 14.819491 94.733405 41.776392 25.085278 26.747124 38.80574 62.187217 38.80574 99.866299 0 37.181756-13.458496 72.293369-37.915465 98.910533l-0.418532 0.405229-200.884838 214.61758c-2.565424 2.736315-6.126522 4.307087-9.793021 4.307087zM7.706504 741.222177H128.363273s74.415701-82.480361 154.852524-100.546796h343.901827c27.650702 0 50.272886 22.622185 50.272886 50.272886s-22.622185 50.27391-50.272886 50.27391H480.43516c-18.276212 0-33.201103 14.924891-33.201103 33.149938 0 18.249606 14.924891 33.227709 33.201103 33.201103l256.60375-0.497326 195.281224-159.251708c21.838334-17.832098 54.201351-15.030291 72.215598 6.650453 17.963081 21.576368 15.030291 54.305728-6.650454 72.215598L715.14941 960.409833H7.706504V741.222177z"  /></svg>