<?xml version="1.0" standalone="no"?><!DOCTYPE svg PUBLIC "-//W3C//DTD SVG 1.1//EN" "http://www.w3.org/Graphics/SVG/1.1/DTD/svg11.dtd"><svg class="icon" width="200px" height="200.00px" viewBox="0 0 1024 1024" version="1.1" xmlns="http://www.w3.org/2000/svg"><path fill="#1890ff" d="M107.104129 122.799568h809.764113c54.992365 0 100.030028 44.997754 100.030027 99.990119v24.712795H7.101731v-24.712795c0-54.992365 45.010033-99.990119 100.002398-99.990119zM631.128976 514.948139h270.574921v54.915618H631.128976v-54.915618zM267.33207 637.216613h16.713627c15.488732 7.12629 33.357669 11.195971 52.387033 11.19597 19.031411 0 36.898301-4.070704 52.387033-11.19597h16.713626c48.087109 0 87.428037 39.338882 87.428037 87.427013v9.627246c0 20.836519-17.046201 37.88272-37.883743 37.88272H217.790846c-20.836519 0-37.884766-17.045177-37.884766-37.88272v-9.627246c0-48.088132 39.341951-87.427014 87.42599-87.427013z m69.10066-222.615726c48.437079 0 87.705352 39.26725 87.705352 87.705353s-39.268274 87.703306-87.705352 87.703306c-48.437079 0-87.705352-39.265204-87.705353-87.703306s39.268274-87.705352 87.705353-87.705353z m294.696246 214.087509h270.574921v54.891058H631.128976v-54.891058z m0-227.465164h270.574921v54.903338H631.128976v-54.903338zM1016.897246 306.786585H7.101731v494.437031c0 54.991342 45.010033 99.975792 100.002398 99.975792h809.764113c54.992365 0 100.030028-44.984451 100.030027-99.975792l-0.001023-494.437031z"  /></svg>