<?xml version="1.0" standalone="no"?><!DOCTYPE svg PUBLIC "-//W3C//DTD SVG 1.1//EN" "http://www.w3.org/Graphics/SVG/1.1/DTD/svg11.dtd"><svg class="icon" width="200px" height="200.00px" viewBox="0 0 1024 1024" version="1.1" xmlns="http://www.w3.org/2000/svg"><path fill="#1890ff" d="M99.01184 165.229852h235.128688v177.594435h355.715874v-177.594435h235.180877c50.022177 0 90.882712 41.287253 90.882711 91.772986v614.62922c0 50.48471-40.860535 91.797546-90.882711 91.797546H99.01184c-50.021154 0-90.932854-41.312835-90.932854-91.797546V257.002838c0-50.485734 40.9117-91.772986 90.932854-91.772986z m506.089395 508.645609c-23.827637 21.696095-54.910501 36.141056-90.676004 36.141056-35.829972 0-66.86167-14.444961-93.15854-36.141056-59.644306 31.333573-100.195803 72.310765-100.195803 147.036527h381.910413c-0.001023-74.725762-40.551497-113.284886-97.880066-147.036527z m-93.095095 7.221457c59.696494 0 107.452053-50.61467 107.452052-110.869888 0-60.279778-47.755558-110.894448-107.452052-110.894448-59.657609 0-107.41419 50.61467-107.414191 110.894448 0 62.67124 50.124507 110.869888 107.414191 110.869888z"  /><path fill="#1890ff" d="M445.401319 60.570396h143.127505c22.231283 0 40.449167 18.396962 40.449167 40.870768v177.516665H404.900987V101.441164c0-22.474829 18.217884-40.870768 40.500332-40.870768z"  /></svg>