<?xml version="1.0" standalone="no"?><!DOCTYPE svg PUBLIC "-//W3C//DTD SVG 1.1//EN" "http://www.w3.org/Graphics/SVG/1.1/DTD/svg11.dtd"><svg class="icon" width="200px" height="200.00px" viewBox="0 0 1024 1024" version="1.1" xmlns="http://www.w3.org/2000/svg"><path fill="#1890ff" d="M62.717288 881.540712h898.566447v134.78246H62.717288zM1014.04939 770.479466c0 22.843219-18.660975 41.563545-41.534892 41.563545H51.485502c-22.873918 0-41.534892-18.720326-41.534892-41.563545v-83.274445c0-108.106967 88.393013-196.542959 196.498956-196.542959h611.040493c108.107991 0 196.558308 88.553672 196.558308 196.542959v83.274445z"  /><path fill="#1890ff" d="M512.007163 7.676828c100.150777 0 181.406244 81.211464 181.406244 181.391917 0 30.844434-7.721853 59.932878-21.293936 85.35073-40.130919 71.603662-38.375952 209.369053-28.431483 224.740104H382.884598c16.321701-102.9884-19.714978-198.620266-32.817364-228.29404-12.460775-24.555206-19.480641-52.371683-19.480641-81.796794-0.001023-100.180453 81.196115-181.391917 181.42057-181.391917z"  /></svg>